<svg xmlns="http://www.w3.org/2000/svg" width="22.5" height="24.088" viewBox="0 0 22.5 24.088">
  <path id="Save-Icon-093bnc3" d="M91.013,45.989a1.7,1.7,0,0,1-1.075-.385l-8.525-7.476L72.9,45.581a1.654,1.654,0,0,1-2.74-1.244V23.551a1.649,1.649,0,0,1,1.647-1.65H91a1.653,1.653,0,0,1,1.655,1.65V44.337a1.654,1.654,0,0,1-.983,1.506,1.559,1.559,0,0,1-.664.146m-9.6-10.139a.986.986,0,0,1,.647.244L90.7,43.677V23.856H72.115V43.672l8.654-7.579a.962.962,0,0,1,.644-.244" transform="translate(-70.16 -21.901)"/>
</svg>
