<?xml version="1.0" encoding="utf-8"?>
<!-- Generator: Adobe Illustrator 22.1.0, SVG Export Plug-In . SVG Version: 6.00 Build 0)  -->
<svg version="1.1" id="Layer_1" xmlns="http://www.w3.org/2000/svg" xmlns:xlink="http://www.w3.org/1999/xlink" x="0px" y="0px"
	 viewBox="0 0 512 512" style="enable-background:new 0 0 512 512;" xml:space="preserve">
<g>
	<path d="M256,31C131.7,31,31,131.7,31,256s100.7,225,225,225s225-100.7,225-225S380.3,31,256,31z M256,437.5
		c-100.1,0-181.5-81.4-181.5-181.5S155.9,74.5,256,74.5S437.5,155.9,437.5,256S356.1,437.5,256,437.5z M183.4,241.5
		c16.1,0,29-13,29-29s-13-29-29-29s-29,13-29,29S167.4,241.5,183.4,241.5z M328.6,241.5c16.1,0,29-13,29-29s-13-29-29-29
		c-16.1,0-29,13-29,29S312.5,241.5,328.6,241.5z M332.2,307.4c-18.9,22.7-46.7,35.7-76.2,35.7s-57.3-13-76.2-35.7
		c-7.7-9.3-21.5-10.4-30.7-2.8c-9.3,7.7-10.4,21.4-2.8,30.7c27.2,32.7,67.2,51.4,109.7,51.4s82.5-18.7,109.7-51.4
		c7.7-9.3,6.4-23-2.8-30.7C353.7,296.9,339.9,298.1,332.2,307.4z"/>
</g>
</svg>
